# xmcd
#
# Track frame offsets:
#	150
#	18553
#	26210
#	41975
#	59736
#	75113
#	91776
#	110611
#	131372
#	149207
#	163783
#	179678
#	196755
#	212621
#	226520
#	236116
#
# Disc length: 3372 seconds
#
# Revision: 1
# Processed by: cddbd v1.5PL3 Copyright (c) Steve Scherf et al.
# Submitted via: audiograbber 1.83.01
#
DISCID=df0d2a10
DTITLE=various. - Maxirock. (2003)
DYEAR=1900
DGENRE=
TTITLE0=The Rasmus. - In The Shadows.
TTITLE1=Иван Купала. - Пчелы.
TTITLE2=Feel Good Productions. - Calling Out 4 All The People.
TTITLE3=Two Face. - Fire In You Eyes. (Ау ау)
TTITLE4=Магнитная аномалия. - Клавиши.
TTITLE5=Swan Lee. - Enter.
TTITLE6=Воскресение. - Не оставь меня.
TTITLE7=Slow Train Soul. - In The Back.
TTITLE8=In My Life. - In My Life.
TTITLE9=Бер-линн. - Ты.
TTITLE10=The April Tears. - Love Parasites.
TTITLE11=Garbo. - Won't Be In Your Way.
TTITLE12=Палата люкс. - Край.
TTITLE13=Lumen. - Сид и Нэнси.
TTITLE14=Lea Finn. - Modern Girl.
TTITLE15=Алиса. - Горизонт.
EXTD=
EXTT0=
EXTT1=
EXTT2=
EXTT3=
EXTT4=
EXTT5=
EXTT6=
EXTT7=
EXTT8=
EXTT9=
EXTT10=
EXTT11=
EXTT12=
EXTT13=
EXTT14=
EXTT15=
PLAYORDER=
